<svg xmlns="http://www.w3.org/2000/svg" width="400" height="122" viewBox="0 0 400 122" fill="none">
<rect width="400" height="122" fill="#ffffff"/>
<line x1="12" y1="52" x2="388" y2="52" stroke="#000000" stroke-width="1.1"/>
<line x1="12" y1="64" x2="388" y2="64" stroke="#000000" stroke-width="1.1"/>
<line x1="12" y1="76" x2="388" y2="76" stroke="#000000" stroke-width="1.1"/>
<line x1="12" y1="88" x2="388" y2="88" stroke="#000000" stroke-width="1.1"/>
<line x1="12" y1="100" x2="388" y2="100" stroke="#000000" stroke-width="1.1"/>
<line x1="56" y1="24" x2="56" y2="19" stroke="#E38C22" stroke-width="1" stroke-dasharray="2 2"/>
<rect x="55.25" y="22" width="1.5" height="30" fill="#000000"/>
<ellipse cx="48" cy="52" rx="8.4" ry="5.6" fill="#000000" transform="rotate(-20 48 52)"/>
<circle cx="56" cy="14" r="9" fill="#ffffff" stroke="#E38C22" stroke-width="1.2"/>
<text x="56" y="18" fill="#E38C22" font-family="Arial, Helvetica, sans-serif" font-size="12" text-anchor="middle">1</text>
<line x1="94" y1="24" x2="94" y2="25" stroke="#E38C22" stroke-width="1" stroke-dasharray="2 2"/>
<rect x="93.25" y="28" width="1.5" height="30" fill="#000000"/>
<ellipse cx="86" cy="58" rx="8.4" ry="5.6" fill="#000000" transform="rotate(-20 86 58)"/>
<circle cx="94" cy="14" r="9" fill="#ffffff" stroke="#E38C22" stroke-width="1.2"/>
<text x="94" y="18" fill="#E38C22" font-family="Arial, Helvetica, sans-serif" font-size="12" text-anchor="middle">2</text>
<line x1="132" y1="24" x2="132" y2="31" stroke="#E38C22" stroke-width="1" stroke-dasharray="2 2"/>
<rect x="131.25" y="34" width="1.5" height="30" fill="#000000"/>
<ellipse cx="124" cy="64" rx="8.4" ry="5.6" fill="#000000" transform="rotate(-20 124 64)"/>
<circle cx="132" cy="14" r="9" fill="#ffffff" stroke="#E38C22" stroke-width="1.2"/>
<text x="132" y="18" fill="#E38C22" font-family="Arial, Helvetica, sans-serif" font-size="12" text-anchor="middle">3</text>
<line x1="170" y1="24" x2="170" y2="34" stroke="#E38C22" stroke-width="1" stroke-dasharray="2 2"/>
<rect x="169.25" y="37" width="1.5" height="33" fill="#000000"/>
<ellipse cx="162" cy="70" rx="8.4" ry="5.6" fill="#000000" transform="rotate(-20 162 70)"/>
<circle cx="170" cy="14" r="9" fill="#ffffff" stroke="#E38C22" stroke-width="1.2"/>
<text x="170" y="18" fill="#E38C22" font-family="Arial, Helvetica, sans-serif" font-size="12" text-anchor="middle">4</text>
<line x1="208" y1="24" x2="208" y2="37" stroke="#E38C22" stroke-width="1" stroke-dasharray="2 2"/>
<rect x="207.25" y="40" width="1.5" height="36" fill="#000000"/>
<ellipse cx="200" cy="76" rx="8.4" ry="5.6" fill="#000000" transform="rotate(-20 200 76)"/>
<circle cx="208" cy="14" r="9" fill="#ffffff" stroke="#E38C22" stroke-width="1.2"/>
<text x="208" y="18" fill="#E38C22" font-family="Arial, Helvetica, sans-serif" font-size="12" text-anchor="middle">5</text>
<line x1="246" y1="24" x2="246" y2="40" stroke="#E38C22" stroke-width="1" stroke-dasharray="2 2"/>
<rect x="245.25" y="43" width="1.5" height="39" fill="#000000"/>
<ellipse cx="238" cy="82" rx="8.4" ry="5.6" fill="#000000" transform="rotate(-20 238 82)"/>
<circle cx="246" cy="14" r="9" fill="#ffffff" stroke="#E38C22" stroke-width="1.2"/>
<text x="246" y="18" fill="#E38C22" font-family="Arial, Helvetica, sans-serif" font-size="12" text-anchor="middle">6</text>
<line x1="284" y1="24" x2="284" y2="43" stroke="#E38C22" stroke-width="1" stroke-dasharray="2 2"/>
<rect x="283.25" y="46" width="1.5" height="42" fill="#000000"/>
<ellipse cx="276" cy="88" rx="8.4" ry="5.6" fill="#000000" transform="rotate(-20 276 88)"/>
<circle cx="284" cy="14" r="9" fill="#ffffff" stroke="#E38C22" stroke-width="1.2"/>
<text x="284" y="18" fill="#E38C22" font-family="Arial, Helvetica, sans-serif" font-size="12" text-anchor="middle">7</text>
<line x1="322" y1="24" x2="322" y2="49" stroke="#E38C22" stroke-width="1" stroke-dasharray="2 2"/>
<rect x="321.25" y="52" width="1.5" height="42" fill="#000000"/>
<ellipse cx="314" cy="94" rx="8.4" ry="5.6" fill="#000000" transform="rotate(-20 314 94)"/>
<circle cx="322" cy="14" r="9" fill="#ffffff" stroke="#E38C22" stroke-width="1.2"/>
<text x="322" y="18" fill="#E38C22" font-family="Arial, Helvetica, sans-serif" font-size="12" text-anchor="middle">8</text>
<line x1="360" y1="24" x2="360" y2="55" stroke="#E38C22" stroke-width="1" stroke-dasharray="2 2"/>
<rect x="359.25" y="58" width="1.5" height="42" fill="#000000"/>
<ellipse cx="352" cy="100" rx="8.4" ry="5.6" fill="#000000" transform="rotate(-20 352 100)"/>
<circle cx="360" cy="14" r="9" fill="#ffffff" stroke="#E38C22" stroke-width="1.2"/>
<text x="360" y="18" fill="#E38C22" font-family="Arial, Helvetica, sans-serif" font-size="12" text-anchor="middle">9</text>
</svg>
